<svg width="24" height="24" viewBox="0 0 24 24" fill="none">
  <path
    d="M15.4643 3.604L19.3754 3.604C19.9962 3.604 20.4995 4.10724 20.4995 4.72802C20.4995 5.3488 19.9962 5.85204 19.3754 5.85204L4.625 5.85204C4.00422 5.85204 3.50098 5.3488 3.50098 4.72802C3.50098 4.10724 4.00422 3.604 4.625 3.604L8.53604 3.604C8.96534 2.64952 9.92456 1.98493 11.039 1.98493H12.9613C14.0758 1.98493 15.035 2.64952 15.4643 3.604Z"
    fill="var(--main-red)"
  />
  <path
    fillRule="evenodd"
    clipRule="evenodd"
    d="M18.4391 19.2679C18.1987 20.8478 16.8403 22.0151 15.2423 22.0151H9.07134C7.47331 22.0151 6.11492 20.8478 5.87451 19.2679L4.33915 9.17837C4.16045 8.00406 5.06942 6.94631 6.25724 6.94631H18.0564C19.2442 6.94631 20.1532 8.00406 19.9745 9.17837L18.4391 19.2679ZM15.2423 19.767C15.7294 19.767 16.1434 19.4112 16.2167 18.9297L17.5669 10.0564C17.636 9.60288 17.2849 9.19435 16.8261 9.19435H7.48751C7.02874 9.19435 6.67767 9.60288 6.74669 10.0564L8.09697 18.9297C8.17024 19.4112 8.58427 19.767 9.07134 19.767H15.2423Z"
    fill="var(--main-red)"
  />
</svg>