<svg width="24" height="24" viewBox="0 0 24 24" fill="none">
  <path
    fillRule="evenodd"
    clipRule="evenodd"
    d="M12.3608 19.3845C12.3608 18.825 12.8145 18.3713 13.374 18.3713L20.9857 18.3713C21.5453 18.3713 21.9989 18.825 21.9989 19.3845C21.9989 19.9441 21.5453 20.3977 20.9857 20.3977L13.374 20.3977C12.8145 20.3977 12.3608 19.9441 12.3608 19.3845Z"
    fill="#fff"
  />
  <path
    d="M11.4381 6.12057C11.5653 5.98413 11.779 5.97664 11.9154 6.10383L15.961 9.8753C16.0975 10.0025 16.105 10.2162 15.9778 10.3526L7.64461 19.2916C7.58103 19.3598 7.49209 19.3987 7.39886 19.399L3.60451 19.4134C3.42617 19.4141 3.27805 19.276 3.26624 19.0981L3.01492 15.3122C3.00875 15.2192 3.0413 15.1277 3.10488 15.0595L11.4381 6.12057Z"
    stroke="#fff"
    stroke-width="2.02641"
    strokeLinejoin="round"
  />
  <path
    d="M14.5014 2.82931C14.0905 2.44948 13.4495 2.4747 13.0697 2.88563C12.6898 3.29656 12.7151 3.93759 13.126 4.31741L14.5014 2.82931ZM17.752 8.59325C18.1629 8.97307 18.804 8.94785 19.1838 8.53693C19.5636 8.126 19.5384 7.48497 19.1275 7.10515L17.752 8.59325ZM13.126 4.31741L17.752 8.59325L19.1275 7.10515L14.5014 2.82931L13.126 4.31741Z"
    fill="#fff"
  />
</svg>