<svg width="50" height="50" viewBox="0 0 50 50" fill="none" xmlns="http://www.w3.org/2000/svg">
<circle cx="25" cy="25" r="25" fill="#C70505" fill-opacity="0.06"/>
<path d="M29 21V19C29 18.4696 28.7893 17.9609 28.4142 17.5858C28.0391 17.2107 27.5304 17 27 17H20C19.4696 17 18.9609 17.2107 18.5858 17.5858C18.2107 17.9609 18 18.4696 18 19V31C18 31.5304 18.2107 32.0391 18.5858 32.4142C18.9609 32.7893 19.4696 33 20 33H27C27.5304 33 28.0391 32.7893 28.4142 32.4142C28.7893 32.0391 29 31.5304 29 31V29" stroke="#C70505" stroke-width="1.5" stroke-linecap="round" stroke-linejoin="round"/>
<path d="M22 25H36M36 25L33 22M36 25L33 28" stroke="#C70505" stroke-width="1.5" stroke-linecap="round" stroke-linejoin="round"/>
</svg>
