<svg width="50" height="50" viewBox="0 0 50 50" fill="none" xmlns="http://www.w3.org/2000/svg">
<circle cx="25" cy="25" r="25" fill="#FFB169"/>
<path d="M26.7679 17.9379C27.0331 17.4785 27.47 17.1433 27.9823 17.006C28.4947 16.8687 29.0406 16.9406 29.5 17.2058C29.9593 17.471 30.2945 17.9079 30.4318 18.4202C30.5691 18.9326 30.4972 19.4785 30.232 19.9379C30.9551 20.9823 31.3803 22.2039 31.462 23.4716C31.5438 24.7393 31.279 26.0053 30.6961 27.134L29.1961 29.7321C28.9505 30.3081 28.8435 30.9338 28.8838 31.5588C28.9241 32.1837 29.1105 32.7905 29.4282 33.3302L15.5718 25.3302C16.198 25.3354 16.8167 25.1935 17.3781 24.9159C17.9394 24.6384 18.4278 24.2329 18.8038 23.7321L20.3038 21.134C20.9899 20.0649 21.9539 19.2026 23.0927 18.6395C24.2314 18.0765 25.5019 17.8339 26.7679 17.9379" stroke="white" stroke-width="1.5" stroke-linecap="round" stroke-linejoin="round"/>
<path d="M19.9019 27.8301L19.4019 28.6961C19.004 29.3852 18.8962 30.204 19.1022 30.9726C19.3081 31.7411 19.8109 32.3964 20.4999 32.7942C21.189 33.192 22.0079 33.2998 22.7764 33.0939C23.5449 32.888 24.2002 32.3852 24.598 31.6961L25.098 30.8301" stroke="white" stroke-width="1.5" stroke-linecap="round" stroke-linejoin="round"/>
</svg>
