<svg width="50" height="50" viewBox="0 0 50 50" fill="none" xmlns="http://www.w3.org/2000/svg">
<circle cx="25" cy="25" r="25" fill="#7FC0FB"/>
<path d="M24.9998 15.9999C25.1318 15.9999 25.2628 15.9999 25.3928 15.9999C24.1081 17.1937 23.2824 18.7998 23.0591 20.5392C22.8358 22.2785 23.229 24.0412 24.1705 25.5207C25.112 27.0002 26.5422 28.103 28.2124 28.6374C29.8826 29.1718 31.6873 29.1041 33.3128 28.4459C32.6875 29.9504 31.6656 31.257 30.356 32.2262C29.0464 33.1954 27.4982 33.791 25.8767 33.9493C24.2552 34.1077 22.621 33.8229 21.1487 33.1253C19.6763 32.4278 18.4209 31.3436 17.5164 29.9885C16.6118 28.6334 16.0921 27.0582 16.0127 25.4309C15.9332 23.8036 16.297 22.1852 17.0652 20.7485C17.8333 19.3117 18.9771 18.1104 20.3745 17.2727C21.7719 16.435 23.3705 15.9923 24.9998 15.9919V15.9999Z" stroke="white" stroke-width="1.5" stroke-linecap="round" stroke-linejoin="round"/>
</svg>
