<svg width="32" height="32" viewBox="0 0 32 32" fill="none" xmlns="http://www.w3.org/2000/svg">
<g clip-path="url(#clip0_258_2484)">
<path d="M2.81774 6.93408C1.78595 8.43166 1.00183 10.1132 0.526367 11.9205H7.80446L2.81774 6.93408Z" fill="#29337A"/>
<path d="M11.519 0.640381C9.67552 1.17725 7.96824 2.03393 6.46484 3.15131L11.519 8.20545V0.640381Z" fill="#29337A"/>
<path d="M6.84082 29.1155C8.25099 30.1023 9.82646 30.8662 11.5191 31.3591V24.438L6.84082 29.1155Z" fill="#29337A"/>
<path d="M0.709961 20.7241C1.23899 22.4378 2.04967 24.0276 3.08571 25.4418L7.80336 20.7241H0.709961V20.7241Z" fill="#29337A"/>
<path d="M3.08182 6.56274C2.99238 6.68502 2.90422 6.80905 2.81781 6.93437L7.80454 11.9208H0.526442C0.408489 12.3697 0.312221 12.8273 0.23291 13.2911H9.81075L3.08182 6.56274Z" fill="white"/>
<path d="M6.46973 28.8516C6.59146 28.9423 6.71658 29.0287 6.84081 29.1156L11.5191 24.4379V31.359C11.9685 31.4904 12.425 31.6038 12.8894 31.695V22.4321L6.46973 28.8516Z" fill="white"/>
<path d="M0.354492 19.354C0.4538 19.8183 0.57101 20.2756 0.709702 20.7243H7.80317L3.08552 25.442C3.59861 26.143 4.16756 26.8009 4.78577 27.4092L12.8409 19.354H0.354492Z" fill="white"/>
<path d="M11.519 0.640468V8.20554L6.46475 3.15166C5.76797 3.66982 5.11666 4.24506 4.51318 4.86779L12.889 13.2436V0.304443C12.4249 0.396185 11.9684 0.509882 11.519 0.640468Z" fill="white"/>
<path d="M11.5192 20.676L11.4712 20.7243H11.5192V20.676Z" fill="#D32030"/>
<path d="M12.8413 19.3539H12.8893V19.3057L12.8413 19.3539Z" fill="#D32030"/>
<path d="M18.9988 13.2908H18.9526V13.3373L18.9988 13.2908Z" fill="#D32030"/>
<path d="M11.5663 11.9208L11.519 11.8733V11.9208H11.5663Z" fill="#D32030"/>
<path d="M12.8896 13.2437V13.2909H12.9369L12.8896 13.2437Z" fill="#D32030"/>
<path d="M20.3228 27.8172V31.4038C22.0374 30.9238 23.636 30.1672 25.0659 29.1814L21.1797 25.2952C20.8691 26.3863 20.7555 26.9504 20.3228 27.8172Z" fill="#252F6C"/>
<path d="M21.2002 7.32788L25.4426 3.08542C23.9185 1.96925 22.1895 1.11866 20.3228 0.595703V4.28008C20.8217 5.27924 20.8637 6.03843 21.2002 7.32788Z" fill="#252F6C"/>
<path d="M28.8485 25.5352C29.9169 24.098 30.7496 22.4756 31.2904 20.7244H24.0376L28.8485 25.5352Z" fill="#252F6C"/>
<path d="M31.4739 11.9207C30.9883 10.0752 30.1807 8.36216 29.1164 6.84106L24.0361 11.9207H31.4739Z" fill="#252F6C"/>
<path d="M22.1338 19.6251L23.2333 20.7246L28.4961 25.9874C28.6156 25.8378 28.7343 25.6888 28.8485 25.5354L24.0377 20.7246H31.2905C31.4287 20.2761 31.5461 19.8186 31.6452 19.3542H22.2366C22.2212 19.5485 22.1522 19.4321 22.1338 19.6251Z" fill="#E7E7E7"/>
<path d="M21.0338 8.13027L25.8038 3.35979C25.6843 3.26711 25.5645 3.17489 25.4425 3.08545L21.2 7.32791C21.244 7.49565 20.9929 7.95848 21.0338 8.13027Z" fill="#E7E7E7"/>
<path d="M20.3225 3.98529V0.595461C19.8736 0.469671 19.4165 0.363068 18.9521 0.276123V1.92963C19.462 2.48237 19.919 3.17665 20.3225 3.98529Z" fill="#E7E7E7"/>
<path d="M22.0262 13.2909H31.7674C31.6883 12.827 31.5919 12.3697 31.4739 11.9205H24.0361L29.1163 6.84086C28.6169 6.1274 28.0619 5.45644 27.4555 4.83472L21.7334 10.5563C21.8875 11.5942 21.9565 12.1969 22.0262 13.2909Z" fill="#E7E7E7"/>
<path d="M20.9482 25.0636L25.0659 29.1817C25.7508 28.7101 26.3958 28.1851 26.9976 27.6152L21.5814 22.1987C21.4085 23.2005 21.2034 24.168 20.9482 25.0636Z" fill="#E7E7E7"/>
<path d="M18.9526 29.8802V31.7231C19.4169 31.6367 19.8738 31.5296 20.3229 31.4038V27.8171C19.9192 28.6261 19.4622 29.3282 18.9526 29.8802Z" fill="#E7E7E7"/>
<path d="M21.7334 10.5564L27.455 4.83475C26.9398 4.30572 26.3876 3.81337 25.8035 3.35986L21.3076 7.85647C21.5074 8.69167 21.5982 9.64765 21.7334 10.5564Z" fill="#D71F28"/>
<path d="M15.2017 0.0197264C15.4682 0.00682317 15.734 0 16 0C15.7324 0 15.4662 0.00682317 15.2017 0.0197264Z" fill="#D32030"/>
<path d="M16 31.9999C15.7339 31.9999 15.4682 31.9926 15.2021 31.9797C15.4667 31.9931 15.7325 31.9999 16 31.9999Z" fill="#D32030"/>
<path d="M16 31.9999C17.0095 31.9999 17.9953 31.9022 18.9527 31.723V29.8801C18.1123 30.7911 17.1291 31.9999 16 31.9999Z" fill="#D32030"/>
<path d="M31.7671 13.2908H22.1525C22.2798 15.2975 22.2644 17.361 22.1064 19.3539H31.6454C31.8763 18.2719 32 17.1507 32 16.0002C32 15.0761 31.9177 14.1722 31.7671 13.2908Z" fill="#D71F28"/>
<path d="M22.1338 19.625C22.0449 20.5704 21.7352 21.307 21.5811 22.1988L26.9972 27.615C27.5331 27.1072 28.034 26.564 28.4958 25.9873L23.2332 20.7242L22.1338 19.625Z" fill="#D71F28"/>
<path d="M18.9523 2.04857V0.276372C17.9951 0.0977538 17.0093 0 15.9995 0C17.1286 0 18.1118 1.13785 18.9523 2.04857Z" fill="#D32030"/>
<path d="M20.3228 28.5094C20.7555 27.6424 21.1266 26.6442 21.4374 25.5533L20.3228 24.4387V28.5094Z" fill="#29337A"/>
<path d="M21.5761 6.95205C21.239 5.6626 20.8217 4.49037 20.3228 3.49121V8.20481L21.5761 6.95205Z" fill="#29337A"/>
<path d="M22.4441 19.9353C22.4623 19.7423 22.4787 19.5486 22.4944 19.354H21.8628L22.4441 19.9353Z" fill="white"/>
<path d="M20.3225 8.20483V3.49097C19.9187 2.68232 19.462 1.98757 18.9521 1.4353V10.2112L21.7041 7.45935C21.6626 7.28755 21.6191 7.11927 21.5757 6.95153L20.3225 8.20483Z" fill="white"/>
<path d="M18.9985 13.291H22.5404C22.471 12.1971 22.3603 11.1208 22.2064 10.0833L18.9985 13.291Z" fill="white"/>
<path d="M18.9526 30.5647C19.4625 30.0119 19.9192 29.3176 20.3229 28.509V24.4383L21.4376 25.5529C21.6932 24.6569 21.9077 23.6996 22.081 22.6979L18.9527 19.5698L18.9526 30.5647Z" fill="white"/>
<path d="M18.9525 30.5646V19.5697L22.0807 22.6981C22.2345 21.806 22.3555 20.8809 22.4442 19.9353L21.8629 19.354H22.4944C22.6523 17.3609 22.6677 15.2974 22.5404 13.2908H18.9985L22.2063 10.0831C22.0711 9.17413 21.9039 8.29495 21.704 7.45948L18.9526 10.2114V1.43543C18.112 0.524438 17.1288 0 15.9997 0C15.7337 0 15.4679 0.00682317 15.2014 0.0197264C14.4145 0.0591116 13.6427 0.15592 12.8893 0.304476V13.2436L4.51329 4.86776C3.99865 5.39882 3.51995 5.96467 3.08184 6.56268L8.43993 11.9208L9.81071 13.2911H0.232934C0.0828914 14.1722 0 15.0761 0 16.0003C0 17.151 0.124303 18.2719 0.35467 19.354H12.8413L4.78615 27.4092C5.31363 27.9273 5.87522 28.4099 6.46972 28.8514L12.8891 22.432V31.6951C13.6424 31.8436 14.4147 31.9403 15.2017 31.9798C15.4677 31.9927 15.7335 32 15.9995 32C17.1288 32 18.112 31.4756 18.9525 30.5646Z" fill="#E51D35"/>
</g>
<defs>
<clipPath id="clip0_258_2484">
<rect width="32" height="32" fill="white"/>
</clipPath>
</defs>
</svg>
