<svg width="32" height="32" viewBox="0 0 32 32" fill="none" xmlns="http://www.w3.org/2000/svg">
<g clip-path="url(#clip0_258_2427)">
<path d="M0.7555 11.1305C0.265375 12.666 -6.2489e-05 14.3018 1.10347e-08 15.9999C-6.2489e-05 17.698 0.265437 19.3339 0.755562 20.8694L16 21.5652L31.2444 20.8696C31.7345 19.334 32.0001 17.698 32.0001 16C32 14.3019 31.7346 12.666 31.2444 11.1304L16 10.4348L0.7555 11.1305Z" fill="#F0F0F0"/>
<path d="M31.2444 11.1304L16 10.4348L0.755496 11.1304C0.610246 11.5857 0.485184 12.0499 0.380371 12.5218H31.6194C31.5147 12.0498 31.3897 11.5856 31.2444 11.1304Z" fill="#D80027"/>
<path d="M0.380371 19.478C0.485059 19.9499 0.610121 20.414 0.755371 20.8693L0.756871 20.8693L15.9997 21.565L31.2442 20.8693C31.3894 20.4141 31.5145 19.9499 31.6192 19.478H0.380371Z" fill="#D80027"/>
<path d="M15.9997 31.9998C23.1382 31.9998 29.1839 27.3246 31.2442 20.8694H0.755371C2.81568 27.3246 8.86143 31.9998 15.9997 31.9998Z" fill="#6DA544"/>
<path d="M15.9998 6.2663e-10C8.86143 6.25006e-05 2.81581 4.67525 0.755371 11.1304L31.2442 11.1305C29.184 4.67519 23.1383 -6.24994e-05 15.9998 6.2663e-10Z" fill="#338AF3"/>
<path d="M7.31184 6.60889C7.31184 5.11033 8.36503 3.85845 9.77146 3.55133C9.55534 3.50408 9.33103 3.47852 9.10065 3.47852C7.37178 3.47852 5.97021 4.88002 5.97021 6.60895C5.97021 8.33789 7.37165 9.73939 9.10065 9.73939C9.33103 9.73939 9.55528 9.71377 9.77146 9.66658C8.36509 9.35933 7.31184 8.10745 7.31184 6.60889Z" fill="#F0F0F0"/>
<path d="M11.6219 8.03174L11.8337 8.68393H12.5195L11.9647 9.08705L12.1766 9.73924L11.6219 9.33618L11.067 9.73924L11.2789 9.08705L10.7241 8.68393H11.4099L11.6219 8.03174Z" fill="#F0F0F0"/>
<path d="M13.8102 8.03174L14.0222 8.68393H14.7079L14.1531 9.08705L14.365 9.73924L13.8102 9.33618L13.2554 9.73924L13.4673 9.08705L12.9126 8.68393H13.5983L13.8102 8.03174Z" fill="#F0F0F0"/>
<path d="M15.9993 8.03174L16.2112 8.68393H16.897L16.3422 9.08705L16.5541 9.73924L15.9993 9.33618L15.4444 9.73924L15.6564 9.08705L15.1016 8.68393H15.7874L15.9993 8.03174Z" fill="#F0F0F0"/>
<path d="M18.1883 8.03174L18.4002 8.68393H19.0859L18.5312 9.08705L18.7431 9.73924L18.1883 9.33618L17.6334 9.73924L17.8454 9.08705L17.2905 8.68393H17.9763L18.1883 8.03174Z" fill="#F0F0F0"/>
<path d="M20.3771 8.03174L20.5891 8.68393H21.2748L20.7201 9.08705L20.932 9.73924L20.3771 9.33618L19.8223 9.73924L20.0342 9.08705L19.4795 8.68393H20.1652L20.3771 8.03174Z" fill="#F0F0F0"/>
<path d="M13.8102 5.75513L14.0222 6.40725H14.7079L14.1531 6.81044L14.365 7.46256L13.8102 7.0595L13.2554 7.46256L13.4673 6.81044L12.9126 6.40725H13.5983L13.8102 5.75513Z" fill="#F0F0F0"/>
<path d="M15.9993 5.75513L16.2112 6.40725H16.897L16.3422 6.81044L16.5541 7.46256L15.9993 7.0595L15.4444 7.46256L15.6564 6.81044L15.1016 6.40725H15.7874L15.9993 5.75513Z" fill="#F0F0F0"/>
<path d="M18.1883 5.75513L18.4002 6.40725H19.0859L18.5312 6.81044L18.7431 7.46256L18.1883 7.0595L17.6334 7.46256L17.8454 6.81044L17.2905 6.40725H17.9763L18.1883 5.75513Z" fill="#F0F0F0"/>
<path d="M20.3771 5.75513L20.5891 6.40725H21.2748L20.7201 6.81044L20.932 7.46256L20.3771 7.0595L19.8223 7.46256L20.0342 6.81044L19.4795 6.40725H20.1652L20.3771 5.75513Z" fill="#F0F0F0"/>
<path d="M15.9993 3.47827L16.2112 4.13052H16.897L16.3422 4.53358L16.5541 5.18584L15.9993 4.78277L15.4444 5.18584L15.6564 4.53358L15.1016 4.13052H15.7874L15.9993 3.47827Z" fill="#F0F0F0"/>
<path d="M18.1883 3.47827L18.4002 4.13052H19.0859L18.5312 4.53358L18.7431 5.18584L18.1883 4.78277L17.6334 5.18584L17.8454 4.53358L17.2905 4.13052H17.9763L18.1883 3.47827Z" fill="#F0F0F0"/>
<path d="M20.3771 3.47827L20.5891 4.13052H21.2748L20.7201 4.53358L20.932 5.18584L20.3771 4.78277L19.8223 5.18584L20.0342 4.53358L19.4795 4.13052H20.1652L20.3771 3.47827Z" fill="#F0F0F0"/>
</g>
<defs>
<clipPath id="clip0_258_2427">
<rect width="32" height="32" fill="white"/>
</clipPath>
</defs>
</svg>
